<?xml version="1.0" encoding="UTF-8"?>
<svg width="20px" height="23px" viewBox="0 0 20 23" version="1.1" xmlns="http://www.w3.org/2000/svg" xmlns:xlink="http://www.w3.org/1999/xlink">
    <title>Notification</title>
    <g id="Page-2" stroke="none" stroke-width="1" fill="none" fill-rule="evenodd">
        <g id="Desktop-HD" transform="translate(-22.000000, -579.000000)" fill="#6e7987">
            <g id="Notification" transform="translate(22.000000, 579.000000)">
                <path d="M19.3124568,17.3594165 C19.0980021,17.1654566 17.3562112,15.4249211 17.3562112,9.9327917 C17.3153094,8.05523223 16.6050516,6.25029734 15.3476596,4.82858219 C14.6728237,4.04136088 13.8373664,3.39992313 12.8945068,2.94512889 C12.8987522,2.8992844 12.8987522,2.85315971 12.8945068,2.80731523 C12.8945068,1.25687784 11.6065054,0 10.0176751,0 C8.42884485,0 7.14084343,1.25687784 7.14084343,2.80731523 C7.13659802,2.85315971 7.13659802,2.8992844 7.14084343,2.94512889 C6.19798381,3.39992313 5.36252651,4.04136088 4.68769058,4.82858219 C3.43029863,6.25029734 2.72004079,8.05523223 2.679139,9.9327917 C2.679139,15.4147127 0.942578783,17.1501439 0.728124057,17.3441039 C0.139648875,17.6876313 -0.134123447,18.3776111 0.0638374669,19.0182846 C0.272696948,19.6894375 0.914431647,20.1424089 1.63301839,20.1258981 L6.74854819,20.1258981 C6.46028025,20.4199439 6.46028025,20.8833194 6.74854819,21.1773652 C7.59237272,22.0230096 8.75058941,22.5 9.96013848,22.5 C11.1696876,22.5 12.3279042,22.0230096 13.1717288,21.1773652 C13.440525,20.8876325 13.440525,20.4462561 13.1717288,20.1565233 L18.3552564,20.1565233 C19.0738432,20.1730341 19.7155779,19.7200628 19.9244373,19.0489099 C20.1383578,18.4154625 19.886793,17.7209682 19.3124568,17.3594165 L19.3124568,17.3594165 Z M10.0333669,1.51084601 C10.5809433,1.55641491 11.0549651,1.90037528 11.257328,2.39897847 C10.4500102,2.23495348 9.61672363,2.23495348 8.80940581,2.39897847 C9.01176875,1.90037528 9.48579051,1.55641491 10.0333669,1.51084601 L10.0333669,1.51084601 Z M10.0333669,3.80774029 C13.3495693,3.80774029 15.7870303,7.07443438 15.7870303,9.9327917 C15.7576235,11.6531761 15.9634306,13.3697057 16.3990109,15.0370012 L3.69047917,15.0370012 C4.12605939,13.3697057 4.30911035,11.6531761 4.27970354,9.9327917 C4.27970354,7.07443438 6.71716458,3.80774029 10.0333669,3.80774029 Z M9.9967527,20.9783011 C9.21106584,20.9865257 8.45575748,20.6824898 7.90451147,20.1361065 L12.0366879,20.1361065 C11.4984861,20.6703165 10.7644274,20.9733752 9.9967527,20.9783011 L9.9967527,20.9783011 Z M2.18746231,18.6099479 C2.80064037,17.6487781 3.40848706,16.4192661 3.6891463,15.0370012 L16.3990109,15.0370012 C16.6796701,16.4192661 17.2660935,17.6487781 17.8792715,18.6099479 L2.18746231,18.6099479 Z" id="Shape"></path>
            </g>
        </g>
    </g>
</svg>
