<?xml version="1.0" encoding="UTF-8"?>
<svg width="20px" height="22px" viewBox="0 0 20 22" version="1.1" xmlns="http://www.w3.org/2000/svg" xmlns:xlink="http://www.w3.org/1999/xlink">
    <title>Settings</title>
    <g id="Page-2" stroke="none" stroke-width="1" fill="none" fill-rule="evenodd">
        <g id="Desktop-HD" transform="translate(-21.000000, -75.000000)" fill="#6e7987">
            <g id="Settings" transform="translate(21.000000, 75.600000)">
                <path d="M10,6.8 C7.96526671,6.8 6.31578947,8.46494109 6.31578947,10.51875 C6.31578947,12.5725589 7.96526671,14.2375 10,14.2375 C12.0347333,14.2375 13.6842105,12.5725589 13.6842105,10.51875 C13.6842105,8.46494109 12.0347333,6.8 10,6.8 Z M10,12.8429688 C8.72829169,12.8429688 7.69736842,11.8023806 7.69736842,10.51875 C7.69736842,9.23511943 8.72829169,8.19453125 10,8.19453125 C11.2717083,8.19453125 12.3026316,9.23511943 12.3026316,10.51875 C12.3026316,11.8023806 11.2717083,12.8429688 10,12.8429688 Z" id="Shape"></path>
                <path d="M18.6363566,7.76590909 L18.1818113,7.76590909 C18.0580044,7.37147998 17.9060929,6.98660728 17.727266,6.61430398 L18.0409022,6.29772727 C18.5726355,5.76034052 18.5726355,4.88977311 18.0409022,4.35238636 L16.1136303,2.40704545 C15.5812349,1.87032704 14.7187536,1.87032704 14.1863583,2.40704545 L13.8636311,2.71903409 C13.4947795,2.53854532 13.1134826,2.38521002 12.7227224,2.26022727 L12.7227224,1.80142045 C12.7227224,1.04124443 12.1122019,0.425 11.3590866,0.425 L8.63181491,0.425 C7.87869963,0.425 7.26817906,1.04124443 7.26817906,1.80142045 L7.26817906,2.26022727 C6.87741886,2.38521002 6.49612205,2.53854532 6.1272704,2.71903409 L5.81363416,2.40245739 C5.28123882,1.86573897 4.4187575,1.86573897 3.88636216,2.40245739 L1.95909017,4.3477983 C1.42735695,4.88518504 1.42735695,5.75575246 1.95909017,6.2931392 L2.27272641,6.60971591 C2.09389955,6.98201921 1.94198804,7.36689191 1.81818113,7.76132102 L1.36363585,7.76132102 C0.610520564,7.76132102 0,8.37756545 0,9.13774148 L0,11.8905824 C-2.58379079e-14,12.6507584 0.610520564,13.2670028 1.36363585,13.2670028 L1.81818113,13.2670028 C1.94198804,13.661432 2.09389955,14.0463046 2.27272641,14.418608 L1.95909017,14.7351847 C1.42735695,15.2725714 1.42735695,16.1431388 1.95909017,16.6805256 L3.88636216,18.6258665 C4.4187575,19.1625849 5.28123882,19.1625849 5.81363416,18.6258665 L6.13636131,18.3184659 C6.50521295,18.4989547 6.88650977,18.65229 7.27726997,18.7772727 L7.27726997,19.2360795 C7.27726997,19.9962556 7.88779053,20.6125 8.64090581,20.6125 L11.3681775,20.6125 C12.1212928,20.6125 12.7318134,19.9962556 12.7318134,19.2360795 L12.7318134,18.7772727 C13.1225735,18.65229 13.5038704,18.4989547 13.872722,18.3184659 L14.1863583,18.6350426 C14.7187536,19.171761 15.5812349,19.171761 16.1136303,18.6350426 L18.0409022,16.6897017 C18.5726355,16.152315 18.5726355,15.2817475 18.0409022,14.7443608 L17.727266,14.4277841 C17.9060929,14.0554808 18.0580044,13.6706081 18.1818113,13.276179 L18.6363566,13.276179 C19.3894718,13.276179 19.9999924,12.6599345 19.9999924,11.8997585 L19.9999924,9.14691761 C20.0012006,8.78107392 19.8580657,8.42979615 19.6022033,8.17067408 C19.346341,7.91155201 18.9988042,7.76590706 18.6363566,7.76590909 L18.6363566,7.76590909 Z M18.6363566,11.8951705 L17.1409026,11.8951705 C16.9565956,12.8812384 16.5728497,13.8183601 16.0136303,14.6480114 L17.0681753,15.7124432 L15.1409033,17.6577841 L14.0863583,16.5933523 C13.2644753,17.157931 12.336033,17.545285 11.3590866,17.7311932 L11.3590866,19.2360795 L8.63181491,19.2360795 L8.63181491,17.7266051 C7.65486853,17.540697 6.7264262,17.1533429 5.90454321,16.5887642 L4.84999816,17.653196 L2.92272616,15.7078551 L3.97727122,14.6434233 C3.41805176,13.8137721 3.03430587,12.8766503 2.84999892,11.8905824 L1.36363585,11.8905824 L1.36363585,9.13774148 L2.85908982,9.13774148 C3.04339677,8.15167356 3.42714267,7.2145518 3.98636212,6.38490057 L2.93181707,5.32046875 L4.85908907,3.37512784 L5.91363412,4.43955966 C6.73557931,3.87509731 7.66399679,3.48775365 8.64090581,3.30171875 L8.64090581,1.80142045 L11.3681775,1.80142045 L11.3681775,3.31089489 C12.3450865,3.49692978 13.273504,3.88427344 14.0954492,4.4487358 L15.1499943,3.38430398 L17.0772662,5.32964489 L16.0136303,6.38948864 C16.5728497,7.21913987 16.9565956,8.15626163 17.1409026,9.14232955 L18.6363566,9.14232955 L18.6363566,11.8951705 Z" id="Shape"></path>
            </g>
        </g>
    </g>
</svg>
