<?xml version="1.0" encoding="UTF-8"?>
<svg width="20px" height="20px" viewBox="0 0 20 20" version="1.1" xmlns="http://www.w3.org/2000/svg" xmlns:xlink="http://www.w3.org/1999/xlink">
    <title>Help</title>
    <g id="Page-2" stroke="none" stroke-width="1" fill="none" fill-rule="evenodd">
        <g id="Desktop-HD" transform="translate(-22.000000, -620.000000)" fill="#6e7987">
            <g id="Help" transform="translate(22.000000, 620.000000)">
                <path d="M10,0 C4.4771525,0 0,4.4771525 0,10 C0,15.5228475 4.4771525,20 10,20 C15.5228475,20 20,15.5228475 20,10 C20,4.4771525 15.5228475,0 10,0 L10,0 Z M15.6,3.43181818 L13.3681818,5.66363636 L13.3409091,5.69545455 C11.3787403,4.15862835 8.62125974,4.15862835 6.65909091,5.69545455 L6.63181818,5.66363636 L4.4,3.43181818 C7.62457532,0.670808984 12.3799701,0.670808984 15.6045455,3.43181818 L15.6,3.43181818 Z M10,14.0909091 C7.7406533,14.0909091 5.90909091,12.2593467 5.90909091,10 C5.90909091,7.7406533 7.7406533,5.90909091 10,5.90909091 C12.2593467,5.90909091 14.0909091,7.7406533 14.0909091,10 C14.0909091,12.2593467 12.2593467,14.0909091 10,14.0909091 L10,14.0909091 Z M1.36363636,10 C1.36185575,7.94619405 2.09552905,5.95963247 3.43181818,4.4 L5.66363636,6.63181818 L5.69545455,6.65909091 C4.15862835,8.62125974 4.15862835,11.3787403 5.69545455,13.3409091 L5.66363636,13.3681818 L3.43181818,15.6 C2.09552905,14.0403675 1.36185575,12.053806 1.36363636,10 L1.36363636,10 Z M4.4,16.5681818 L6.63181818,14.3363636 L6.65909091,14.3045455 C8.62125974,15.8413716 11.3787403,15.8413716 13.3409091,14.3045455 L13.3681818,14.3363636 L15.6,16.5681818 C12.3754247,19.329191 7.62002987,19.329191 4.39545455,16.5681818 L4.4,16.5681818 Z M16.5681818,15.6045455 L14.3181818,13.3681818 L14.2863636,13.3409091 C15.8231898,11.3787403 15.8231898,8.62125974 14.2863636,6.65909091 L14.3181818,6.63181818 L16.55,4.4 C19.3110092,7.62457532 19.3110092,12.3799701 16.55,15.6045455 L16.5681818,15.6045455 Z" id="Shape"></path>
            </g>
        </g>
    </g>
</svg>
