<?xml version="1.0" encoding="UTF-8"?>
<svg width="18px" height="12px" viewBox="0 0 18 12" version="1.1" xmlns="http://www.w3.org/2000/svg" xmlns:xlink="http://www.w3.org/1999/xlink">
    <title>Menu-2</title>
    <g id="Page-2" stroke="none" stroke-width="1" fill="none" fill-rule="evenodd">
        <g id="Desktop-HD" transform="translate(-129.000000, -23.000000)" fill="#6e7987">
            <g id="Menu-2" transform="translate(129.000000, 23.000000)">
                <path d="M0.818181818,1.8 L17.1818182,1.8 C17.6336875,1.8 18,1.39705627 18,0.9 C18,0.402943725 17.6336875,0 17.1818182,0 L0.818181818,0 C0.366312477,0 0,0.402943725 0,0.9 C0,1.39705627 0.366312477,1.8 0.818181818,1.8 L0.818181818,1.8 Z" id="Shape"></path>
                <path d="M17.1818182,4.8 L0.818181818,4.8 C0.366312477,4.8 0,5.20294373 0,5.7 C0,6.19705627 0.366312477,6.6 0.818181818,6.6 L17.1818182,6.6 C17.6336875,6.6 18,6.19705627 18,5.7 C18,5.20294373 17.6336875,4.8 17.1818182,4.8 L17.1818182,4.8 Z" id="Shape"></path>
                <path d="M17.1818182,10.2 L0.818181818,10.2 C0.366312477,10.2 0,10.6029437 0,11.1 C0,11.5970563 0.366312477,12 0.818181818,12 L17.1818182,12 C17.6336875,12 18,11.5970563 18,11.1 C18,10.6029437 17.6336875,10.2 17.1818182,10.2 L17.1818182,10.2 Z" id="Shape"></path>
            </g>
        </g>
    </g>
</svg>
