<?xml version="1.0" encoding="UTF-8"?>
<svg width="20px" height="21px" viewBox="0 0 20 21" version="1.1" xmlns="http://www.w3.org/2000/svg" xmlns:xlink="http://www.w3.org/1999/xlink">
    <title>Diagram-2</title>
    <g id="Page-2" stroke="none" stroke-width="1" fill="none" fill-rule="evenodd">
        <g id="Desktop-HD" transform="translate(-21.000000, -30.000000)" fill="#6e7987">
            <g id="Chart" transform="translate(21.000000, 30.000000)">
                <path d="M18.1523835,1.83579639 C16.4761954,0.178872469 14.1333415,0 13.2047714,0 L12.7285816,0 C11.9902058,0.0659516632 11.4255752,0.679293812 11.4285834,1.41215107 L11.4285834,7.06075534 C11.4285834,7.84066484 12.0681757,8.4729064 12.8571528,8.4729064 L18.5714306,8.4729064 C19.3604077,8.4729064 20,7.84066484 20,7.06075534 C20,6.72183908 19.9476191,3.61039956 18.1523835,1.83579639 Z M12.8571528,7.07016968 L12.8571528,1.42156541 L13.2047714,1.42156541 C13.971437,1.42156541 15.8476248,1.56278051 17.1428611,2.83371648 C18.5714306,4.24586754 18.5714306,7.07016968 18.5714306,7.07016968 L12.8571528,7.07016968 Z" id="Shape"></path>
                <path d="M16.4092664,9.8478956 L10.1351351,9.8478956 L10.1351351,3.56753954 C10.1351351,2.76710611 9.48689877,2.1182266 8.68725869,2.1182266 C3.89478764,2.1182266 0,6.15214761 0,11.2972085 C0,16.278014 3.71138996,20.4761905 8.68725869,20.4761905 C13.7223372,20.4060531 17.787075,16.3372826 17.8571429,11.2972085 C17.8571429,10.4967751 17.2089065,9.8478956 16.4092664,9.8478956 Z M8.68725869,19.0268775 C4.50289575,19.0268775 1.44787645,15.4857229 1.44787645,11.2972085 C1.44787645,7.10869415 4.50289575,3.56753954 8.68725869,3.56753954 L8.68725869,11.2972085 L16.4092664,11.2972085 C16.3521253,15.542269 12.9281117,18.9696797 8.68725869,19.0268775 Z" id="Shape"></path>
            </g>
        </g>
    </g>
</svg>
